<svg width="30" height="30" fill="none" xmlns="http://www.w3.org/2000/svg"><path d="M15 1.8C7.717 1.8 1.8 7.717 1.8 15c0 6.611 4.877 12.083 11.228 13.037l.689.105V17.74h-3.119v-2.112h3.119v-2.804c0-1.727.414-2.864 1.1-3.578.686-.713 1.7-1.073 3.11-1.073 1.128 0 1.567.068 1.984.12v1.728h-1.468c-.833 0-1.517.465-1.872 1.084-.354.619-.465 1.358-.465 2.111v2.411h3.674l-.327 2.112h-3.347v10.419l.681-.093C23.23 27.192 28.2 21.676 28.2 15c0-7.283-5.917-13.2-13.2-13.2zM15 3c6.634 0 12 5.366 12 12 0 5.838-4.178 10.64-9.694 11.72v-7.781h3.176l.697-4.512h-3.873v-1.21c0-.623.114-1.18.306-1.516.192-.335.377-.48.831-.48h2.668V7.206l-.52-.07c-.36-.05-1.181-.163-2.664-.163-1.622 0-3.014.442-3.975 1.441-.96 1-1.435 2.488-1.435 4.41v1.604H9.398v4.512h3.119v7.742C7.09 25.533 3 20.776 3 15 3 8.366 8.365 3 15 3z" fill="#fff"/></svg>