<svg width="30" height="30" fill="none" xmlns="http://www.w3.org/2000/svg"><path d="M15 1.2C7.386 1.2 1.2 7.386 1.2 15c0 7.614 6.186 13.8 13.8 13.8 7.614 0 13.8-6.186 13.8-13.8 0-7.614-6.186-13.8-13.8-13.8zm0 1.2c6.966 0 12.6 5.634 12.6 12.6 0 6.966-5.634 12.6-12.6 12.6-6.966 0-12.6-5.634-12.6-12.6C2.4 8.034 8.034 2.4 15 2.4zm3.416 6.035a3.933 3.933 0 00-3.925 3.923c0 .016.005.03.005.045-2.288-.305-4.313-1.434-5.703-3.14a.6.6 0 00-.984.078 3.92 3.92 0 00-.53 1.973c0 .638.177 1.23.448 1.764a.6.6 0 00-.475.586v.042c0 1.16.543 2.166 1.347 2.885a.6.6 0 00-.156.616c.335 1.042 1.116 1.858 2.095 2.317-.783.366-1.621.629-2.546.629-.246 0-.486-.014-.72-.043a.6.6 0 00-.395 1.102 10.006 10.006 0 005.417 1.588c3.223 0 5.77-1.354 7.472-3.285 1.703-1.93 2.586-4.423 2.586-6.77 0-.071-.003-.139-.004-.208.584-.47 1.134-.987 1.55-1.61a.6.6 0 00-.675-.907c.097-.19.234-.353.3-.558a.6.6 0 00-.877-.7c-.524.311-1.114.516-1.724.659-.687-.585-1.539-.986-2.506-.986zm0 1.2c.787 0 1.491.33 1.988.86a.6.6 0 00.553.178c.09-.018.164-.076.254-.097-.011.007-.018.02-.03.026a.6.6 0 00.318 1.114c-.041.032-.066.081-.108.112a.6.6 0 00-.248.512c.006.134.01.27.01.404 0 2.043-.79 4.279-2.287 5.978-1.498 1.699-3.68 2.878-6.572 2.878-.992 0-1.925-.198-2.814-.5 1.106-.234 2.152-.625 3.01-1.298a.6.6 0 00-.359-1.07c-.85-.016-1.503-.497-1.992-1.116.18-.024.365-.024.537-.072a.6.6 0 00-.041-1.167 2.701 2.701 0 01-2.047-1.904c.255.061.478.198.75.207a.6.6 0 00.352-1.098 2.716 2.716 0 01-1.211-2.268c0-.196.105-.352.144-.535 1.704 1.687 3.972 2.807 6.526 2.935a.6.6 0 00.614-.737 2.715 2.715 0 012.653-3.342z" fill="#fff"/></svg>